#!OML:ASF H:\Punching\Project 1\Capture day 1\Session 1\female.ASF
:FULLY-SPECIFIED
:DEGREES
2058
root -1.12857 15.8961 -4.6805 9.17698 -22.0844 4.88659
lowerback 2.44701 -1.98902 -2.5359
upperback -4.66918 -2.83657 -0.211272
thorax -6.10858 -1.29861 1.41584
lowerneck -12.0531 -5.37791 0.376407
upperneck 12.7526 -7.74184 2.44426
head 5.92361 -3.56187 0.0432856
rclavicle -2.09966e-014 -1.07344e-014
rhumerus -17.315 17.8453 -72.729
rradius 52.8596
rwrist -13.2339
rhand -1.23467 -12.8346
rfingers 7.12502
rthumb 24.4073 -41.3
lclavicle -2.09966e-014 -1.07344e-014
lhumerus -23.6528 -16.4161 70.2813
lradius 53.3162
lwrist -3.21446
lhand -7.2961 16.4085
lfingers 7.12502
lthumb 18.586 45.5406
rfemur -18.9407 3.79359 16.574
rtibia 28.8439
rfoot -18.8554 -21.9621
rtoes 6.97839
lfemur -34.2762 -0.0605854 -21.5087
ltibia 38.9641
lfoot -8.02491 35.2432
ltoes 14.7453
2059
root -1.14486 15.8924 -4.70053 9.24213 -21.8658 5.00755
lowerback 2.52213 -2.0048 -2.52297
upperback -4.61575 -2.86015 -0.254608
thorax -6.09705 -1.31233 1.3672
lowerneck -12.2088 -5.43902 0.330775
upperneck 12.5706 -7.80903 2.44644
head 5.89486 -3.5975 0.043911
rclavicle -6.58474e-015 1.59028e-015
rhumerus -18.5048 17.5587 -73.1718
rradius 52.0283
rwrist -12.7212
rhand -1.57945 -12.6799
rfingers 7.12502
rthumb 24.0767 -41.1894
lclavicle -6.58474e-015 1.59028e-015
lhumerus -25.2977 -15.9134 70.8559
lradius 52.7062
lwrist -3.5604
lhand -7.23687 16.509
lfingers 7.12502
lthumb 18.643 45.6356
rfemur -19.2178 3.70698 16.5449
rtibia 29.1614
rfoot -19.0259 -22.0701
rtoes 7.18785
lfemur -34.4256 -0.346849 -22.0377
ltibia 39.3219
lfoot -7.97713 34.7595
ltoes 14.1902
2060
root -1.16075 15.8889 -4.71825 9.29337 -21.6569 5.13718
lowerback 2.59531 -2.01885 -2.52791
upperback -4.56378 -2.88225 -0.295169
thorax -6.08514 -1.3244 1.33128
lowerneck -12.3161 -5.49958 0.275831
upperneck 12.3567 -7.87374 2.4612
head 5.84879 -3.63266 0.052096
rclavicle -7.40721e-014 -8.34896e-015
rhumerus -19.7261 17.1975 -73.6295
rradius 51.1936
rwrist -12.1518
rhand -2.03853 -12.4161
rfingers 7.12502
rthumb 23.6364 -40.9831
lclavicle -7.40721e-014 -8.34896e-015
lhumerus -26.9519 -15.2977 71.4544
lradius 52.1006
lwrist -3.95692
lhand -7.17676 16.5647
lfingers 7.12502
lthumb 18.7008 45.6858
rfemur -19.4714 3.61743 16.5023
rtibia 29.4682
rfoot -19.1987 -22.168
rtoes 7.39535
lfemur -34.5383 -0.658766 -22.5503
ltibia 39.6637
lfoot -7.9543 34.3149
ltoes 13.6453
2061
root -1.17617 15.8857 -4.73341 9.33375 -21.4598 5.26612
lowerback 2.66259 -2.02473 -2.54026
upperback -4.51164 -2.8936 -0.335355
thorax -6.06974 -1.33086 1.29885
lowerneck -12.3891 -5.56442 0.223903
upperneck 12.1294 -7.94459 2.48069
head 5.79291 -3.67102 0.0620025
rclavicle -6.86801e-014 -1.98785e-015
rhumerus -20.9774 16.7472 -74.0938
rradius 50.3519
rwrist -11.5746
rhand -2.5779 -12.0644
rfingers 7.12502
rthumb 23.119 -40.6973
lclavicle -6.86801e-014 -1.98785e-015
lhumerus -28.5922 -14.5768 72.0649
lradius 51.4907
lwrist -4.36892
lhand -7.08494 16.6254
lfingers 7.12502
lthumb 18.7891 45.738
rfemur -19.7 3.53287 16.4546
rtibia 29.7614
rfoot -19.3692 -22.2626
rtoes 7.59088
lfemur -34.6207 -0.988783 -23.0376
ltibia 40
lfoot -7.94608 33.8965
ltoes 13.1669
2062
root -1.1911 15.8823 -4.74684 9.37286 -21.2552 5.39
lowerback 2.73231 -2.02954 -2.55679
upperback -4.46963 -2.9039 -0.370783
thorax -6.06608 -1.33623 1.27397
lowerneck -12.4072 -5.63218 0.16268
upperneck 11.8819 -8.01867 2.51554
head 5.72264 -3.71135 0.0798727
rclavicle -5.26779e-015 1.31198e-014
rhumerus -22.2535 16.2144 -74.5595
rradius 49.4931
rwrist -11.0392
rhand -3.16946 -11.6529
rfingers 7.12502
rthumb 22.5513 -40.3558
lclavicle -5.26779e-015 1.31198e-014
lhumerus -30.2234 -13.7665 72.6833
lradius 50.8722
lwrist -4.75321
lhand -6.97399 16.7032
lfingers 7.12502
lthumb 18.8958 45.8054
rfemur -19.9097 3.44081 16.4091
rtibia 30.0391
rfoot -19.5374 -22.3584
rtoes 7.78065
lfemur -34.6934 -1.33967 -23.4956
ltibia 40.3403
lfoot -7.92998 33.4809
ltoes 12.6861
2063
root -1.20558 15.8788 -4.75895 9.41842 -21.0367 5.50521
lowerback 2.79039 -2.03569 -2.57188
upperback -4.43326 -2.91543 -0.401058
thorax -6.06147 -1.34214 1.2534
lowerneck -12.3898 -5.70337 0.0916644
upperneck 11.6316 -8.09719 2.56349
head 5.6467 -3.75382 0.104102
rclavicle 2.86001e-014 -5.56597e-015
rhumerus -23.5322 15.5926 -75.0165
rradius 48.6119
rwrist -10.5728
rhand -3.77523 -11.2288
rfingers 7.12502
rthumb 21.9698 -40.0011
lclavicle 2.86001e-014 -5.56597e-015
lhumerus -31.8265 -12.8841 73.297
lradius 50.242
lwrist -5.06484
lhand -6.91884 16.8036
lfingers 7.12502
lthumb 18.9489 45.9006
rfemur -20.1067 3.34149 16.3702
rtibia 30.2998
rfoot -19.7058 -22.459
rtoes 7.97418
lfemur -34.7732 -1.70538 -23.9214
ltibia 40.6937
lfoot -7.88187 33.06
ltoes 12.1366
2064
root -1.21947 15.8752 -4.769 9.46799 -20.8085 5.60418
lowerback 2.84213 -2.03885 -2.57573
upperback -4.40509 -2.92199 -0.425044
thorax -6.06227 -1.34583 1.23265
lowerneck -12.3481 -5.77874 0.0118801
upperneck 11.4036 -8.1811 2.61455
head 5.57449 -3.79901 0.130571
rclavicle -3.69243e-014 -2.78299e-015
rhumerus -24.8203 14.8776 -75.454
rradius 47.718
rwrist -10.1879
rhand -4.37063 -10.8534
rfingers 7.12502
rthumb 21.398 -39.6918
lclavicle -3.69243e-014 -2.78299e-015
lhumerus -33.4042 -11.9466 73.9071
lradius 49.6083
lwrist -5.2636
lhand -6.90926 16.9399
lfingers 7.12502
lthumb 18.9581 46.036
rfemur -20.2821 3.23751 16.3442
rtibia 30.5414
rfoot -19.8766 -22.5619
rtoes 8.16782
lfemur -34.8554 -2.07979 -24.3109
ltibia 41.0659
lfoot -7.81748 32.6291
ltoes 11.5914
2065
root -1.23279 15.8714 -4.77718 9.52693 -20.5663 5.68531
lowerback 2.88358 -2.04276 -2.57237
upperback -4.3836 -2.92826 -0.436101
thorax -6.06387 -1.34934 1.22102
lowerneck -12.3225 -5.85549 -0.0777938
upperneck 11.2311 -8.26714 2.66138
head 5.52286 -3.8447 0.155609
rclavicle 3.80176e-015 2.06736e-014
rhumerus -26.0843 14.049 -75.845
rradius 46.7835
rwrist -9.87023
rhand -4.88657 -10.425
rfingers 7.12502
rthumb 20.9024 -39.3189
lclavicle 3.80176e-015 2.06736e-014
lhumerus -34.9561 -10.9539 74.5119
lradius 48.993
lwrist -5.29592
lhand -6.94301 17.1141
lfingers 7.12502
lthumb 18.9256 46.2134
rfemur -20.4395 3.12824 16.3329
rtibia 30.7602
rfoot -20.0689 -22.6652
rtoes 8.42762
lfemur -34.9491 -2.45862 -24.6649
ltibia 41.4604
lfoot -7.72455 32.1784
ltoes 11.0044
2066
root -1.2456 15.8677 -4.7837 9.59511 -20.3106 5.75055
lowerback 2.91837 -2.05308 -2.56251
upperback -4.37483 -2.94208 -0.43235
thorax -6.07434 -1.35631 1.22174
lowerneck -12.306 -5.92996 -0.177999
upperneck 11.1185 -8.34871 2.692
head 5.4913 -3.88858 0.176299
rclavicle 3.86139e-014 9.14409e-015
rhumerus -27.332 13.1355 -76.1933
rradius 45.833
rwrist -9.60745
rhand -5.37876 -10.0775
rfingers 7.12502
rthumb 20.4295 -39.0228
lclavicle 3.86139e-014 9.14409e-015
lhumerus -36.506 -9.91705 75.1079
lradius 48.4056
lwrist -5.20783
lhand -6.99805 17.3296
lfingers 7.12502
lthumb 18.8727 46.4341
rfemur -20.578 3.01748 16.3348
rtibia 30.9534
rfoot -20.277 -22.7709
rtoes 8.74546
lfemur -35.0555 -2.83869 -24.986
ltibia 41.8765
lfoot -7.59373 31.7022
ltoes 10.3561
2067
root -1.25783 15.8641 -4.78816 9.66784 -20.0485 5.79667
lowerback 2.94029 -2.06218 -2.53758
upperback -4.36754 -2.95246 -0.419616
thorax -6.07931 -1.36213 1.22262
lowerneck -12.311 -6.00544 -0.281248
upperneck 11.0635 -8.43139 2.70531
head 5.48087 -3.93299 0.190283
rclavicle -4.88016e-014 -3.37934e-014
rhumerus -28.5602 12.1208 -76.4845
rradius 44.8771
rwrist -9.38992
rhand -5.86743 -9.77915
rfingers 7.12502
rthumb 19.9598 -38.7741
lclavicle -4.88016e-014 -3.37934e-014
lhumerus -38.0374 -8.85072 75.6879
lradius 47.8557
lwrist -5.00125
lhand -7.04422 17.5787
lfingers 7.12502
lthumb 18.8283 46.6874
rfemur -20.6924 2.91515 16.3517
rtibia 31.1215
rfoot -20.4984 -22.8822
rtoes 9.11585
lfemur -35.1674 -3.21106 -25.2731
ltibia 42.3125
lfoot -7.45018 31.1872
ltoes 9.70334
2068
root -1.26949 15.8607 -4.79121 9.74822 -19.7729 5.83223
lowerback 2.95813 -2.07731 -2.50849
upperback -4.37201 -2.97025 -0.395767
thorax -6.09372 -1.37133 1.23342
lowerneck -12.3139 -6.07726 -0.395197
upperneck 11.0483 -8.50727 2.70625
head 5.48245 -3.97471 0.20199
rclavicle -2.24627e-014 -1.27222e-014
rhumerus -29.7731 11.0316 -76.7164
rradius 43.9198
rwrist -9.20297
rhand -6.39578 -9.55384
rfingers 7.12502
rthumb 19.4519 -38.6009
lclavicle -2.24627e-014 -1.27222e-014
lhumerus -39.5735 -7.76201 76.2515
lradius 47.3383
lwrist -4.73175
lhand -7.0731 17.8377
lfingers 7.12502
lthumb 18.8005 46.9492
rfemur -20.7912 2.81743 16.3761
rtibia 31.2671
rfoot -20.722 -23.0052
rtoes 9.50639
lfemur -35.2926 -3.57506 -25.5352
ltibia 42.7644
lfoot -7.27401 30.6272
ltoes 8.99428
2069
root -1.28057 15.8576 -4.7927 9.82948 -19.488 5.86176
lowerback 2.9645 -2.0934 -2.47074
upperback -4.37655 -2.98835 -0.370659
thorax -6.10193 -1.38116 1.24024
lowerneck -12.3168 -6.14958 -0.513893
upperneck 11.0575 -8.58299 2.69947
head 5.49161 -4.01668 0.211574
rclavicle -7.36746e-014 -1.39149e-014
rhumerus -30.9657 9.86672 -76.8859
rradius 42.9743
rwrist -9.0339
rhand -6.95675 -9.385
rfingers 7.12502
rthumb 18.9124 -38.4856
lclavicle -7.36746e-014 -1.39149e-014
lhumerus -41.09 -6.65931 76.7835
lradius 46.8518
lwrist -4.43595
lhand -7.0607 18.1273
lfingers 7.12502
lthumb 18.8124 47.2376
rfemur -20.8706 2.7254 16.4034
rtibia 31.3936
rfoot -20.9369 -23.1408
rtoes 9.87988
lfemur -35.425 -3.91854 -25.7794
ltibia 43.2291
lfoot -7.07895 30.0213
ltoes 8.27412
2070
root -1.29109 15.8546 -4.79271 9.91079 -19.1979 5.88749
lowerback 2.96744 -2.10939 -2.42899
upperback -4.38688 -3.00608 -0.344861
thorax -6.11449 -1.3909 1.24552
lowerneck -12.2978 -6.22255 -0.638411
upperneck 11.0714 -8.65842 2.68998
head 5.49879 -4.05917 0.221837
rclavicle 3.25013e-014 -1.23246e-014
rhumerus -32.1453 8.64177 -76.9877
rradius 42.0345
rwrist -8.86425
rhand -7.51357 -9.22362
rfingers 7.12502
rthumb 18.3768 -38.3756
lclavicle 3.25013e-014 -1.23246e-014
lhumerus -42.5954 -5.53904 77.274
lradius 46.3928
lwrist -4.13599
lhand -6.97626 18.4326
lfingers 7.12502
lthumb 18.8936 47.535
rfemur -20.9344 2.63738 16.4314
rtibia 31.5057
rfoot -21.137 -23.2855
rtoes 10.2143
lfemur -35.5648 -4.2314 -26.0091
ltibia 43.7022
lfoot -6.8746 29.3734
ltoes 7.56619
